#!OML:ASF I:\golf\golf\golf 2\Subject 1\2002-09-07\Subject1.ASF
:FULLY-SPECIFIED
:DEGREES
404
root -6.57894 17.7813 -1.51077 -167.583 0.118156 -176.414
lowerback -8.04502 12.4457 16.0529
upperback -13.8673 21.3787 2.83334
thorax -7.35132 11.1791 -4.48793
lowerneck -10.8752 -20.713 -2.85087
upperneck 7.44511 -28.5093 5.45907
head 5.09669 -13.8533 -0.306122
rclavicle -9.54166e-015 5.08889e-014
rhumerus 116.037 28.6985 -49.8171
rradius 61.9129
rwrist 13.5922
rhand -37.8229 24.5627
rfingers 7.12502
rthumb -10.8685 -5.13601
lclavicle -9.54166e-015 5.08889e-014
lhumerus 71.553 25.1469 67.4212
lradius 76.0574
lwrist 35.0354
lhand -27.017 11.8925
lfingers 7.12502
lthumb -180.436 581.872
rfemur 22.7424 -12.1041 19.6332
rtibia 2.7314
rfoot 13.2234 -44.9982
rtoes 31.5101
lfemur -31.0987 -20.2427 -15.4559
ltibia 32.2144
lfoot 28.2834 -44.962
ltoes 50.1257
405
root -6.56834 17.7797 -1.55626 -167.738 -0.360808 -176.373
lowerback -8.25502 12.4113 15.7074
upperback -13.9653 21.3302 2.70038
thorax -7.39727 11.1829 -4.44108
lowerneck -10.7779 -20.8158 -3.02261
upperneck 7.35336 -28.6454 5.63256
head 5.10629 -13.9186 -0.248672
rclavicle -1.10524e-013 -1.24042e-013
rhumerus 115.922 28.2277 -49.939
rradius 63.1787
rwrist 13.8393
rhand -38.7686 25.3165
rfingers 7.12502
rthumb -11.7805 -4.33217
lclavicle -1.10524e-013 -1.24042e-013
lhumerus 72.2997 25.3646 67.28
lradius 76.7076
lwrist 33.7641
lhand -27.3957 11.8611
lfingers 7.12502
lthumb -180.802 581.839
rfemur 22.5236 -11.879 19.7173
rtibia 3.73842
rfoot 14.1256 -44.4485
rtoes 31.747
lfemur -30.8017 -20.1557 -15.4836
ltibia 32.1504
lfoot 29.1156 -45.2497
ltoes 50.285
406
root -6.56204 17.7795 -1.60116 -167.923 -0.845107 -176.292
lowerback -8.65845 17.2749 14.6888
upperback -14.6084 19.8052 1.53865
thorax -7.16013 7.37453 -4.37297
lowerneck -10.8897 -20.8453 -3.15059
upperneck 7.7703 -28.7302 5.66809
head 5.28159 -13.9472 -0.282023
rclavicle -9.70069e-014 -9.46215e-014
rhumerus 115.766 27.8545 -50.1865
rradius 64.3742
rwrist 14.0197
rhand -39.9668 26.0486
rfingers 7.12502
rthumb -12.9357 -3.53049
lclavicle -9.70069e-014 -9.46215e-014
lhumerus 72.8998 25.7601 66.7833
lradius 77.2095
lwrist 32.6256
lhand -27.9625 11.7651
lfingers 7.12502
lthumb -181.35 581.741
rfemur 22.3572 -11.6488 19.8254
rtibia 4.67984
rfoot 15.4189 -43.9361
rtoes 33.1262
lfemur -30.4748 -20.1393 -15.4824
ltibia 32.0782
lfoot 30.1632 -45.3313
ltoes 50.6426
407
root -6.56223 17.7812 -1.64199 -168.08 -1.32568 -176.205
lowerback -8.86163 17.2345 14.51
upperback -14.836 19.7123 1.34745
thorax -7.31135 7.3102 -4.48207
lowerneck -10.4824 -20.9021 -3.22246
upperneck 8.16155 -28.9125 5.73851
head 5.37194 -14.046 -0.264414
rclavicle 2.62396e-014 4.53229e-014
rhumerus 115.274 27.586 -50.6915
rradius 65.386
rwrist 14.2723
rhand -41.2641 26.0778
rfingers 7.12502
rthumb -14.1861 -3.4178
lclavicle 2.62396e-014 4.53229e-014
lhumerus 73.3069 26.0099 66.0636
lradius 77.6335
lwrist 31.86
lhand -28.2452 11.8647
lfingers 7.12502
lthumb -181.623 581.838
rfemur 22.1198 -11.4127 19.9343
rtibia 5.65305
rfoot 17.4145 -43.1954
rtoes 34.4134
lfemur -30.2011 -20.2058 -15.4602
ltibia 32.0004
lfoot 31.413 -45.1376
ltoes 51.1386
408
root -6.5629 17.7794 -1.67682 -168.179 -1.81715 -176.111
lowerback -9.08129 17.3934 14.356
upperback -15.279 19.8592 0.927546
thorax -7.57747 7.32298 -4.80548
lowerneck -9.25579 -21.0545 -3.08692
upperneck 7.91549 -29.2463 5.9299
head 5.13137 -14.2633 -0.11264
rclavicle 1.44715e-013 1.75726e-013
rhumerus 114.267 27.0361 -51.4492
rradius 66.1136
rwrist 14.4327
rhand -42.3912 26.0355
rfingers 7.12502
rthumb -15.272 -3.38074
lclavicle 1.44715e-013 1.75726e-013
lhumerus 73.6595 25.5542 65.5041
lradius 77.9803
lwrist 31.2068
lhand -28.4688 12.0167
lfingers 7.12502
lthumb -181.839 581.989
rfemur 21.8143 -11.1916 20.074
rtibia 6.60383
rfoot 19.6653 -42.1565
rtoes 33.2669
lfemur -30.0179 -20.2549 -15.3893
ltibia 31.9161
lfoot 32.7364 -44.9112
ltoes 51.7313
409
root -6.56312 17.7769 -1.70648 -168.234 -2.28738 -176.147
lowerback -9.41099 17.068 14.0327
upperback -14.9543 19.4155 1.15224
thorax -7.26479 7.20937 -4.40887
lowerneck -10.6158 -21.0072 -3.21694
upperneck 8.3741 -29.0595 5.64934
head 5.45089 -14.1135 -0.331978
rclavicle -4.85035e-014 -5.08889e-014
rhumerus 115.059 26.9064 -51.2644
rradius 66.9363
rwrist 14.146
rhand -43.171 26.7778
rfingers 7.12502
rthumb -16.023 -2.5796
lclavicle -4.85035e-014 -5.08889e-014
lhumerus 74.2273 26.571 65.3702
lradius 78.3045
lwrist 30.2912
lhand -29.0641 11.9228
lfingers 7.12502
lthumb -182.414 581.889
rfemur 21.5181 -10.9785 20.0962
rtibia 7.40813
rfoot 21.2396 -41.3325
rtoes 32.8145
lfemur -29.9006 -20.2809 -15.4497
ltibia 31.8603
lfoot 33.8313 -44.8521
ltoes 52.1446
410
root -6.56492 17.7783 -1.73642 -168.302 -2.65088 -176.216
lowerback -9.63854 16.9941 13.7621
upperback -15.0529 19.2875 1.02702
thorax -7.30735 7.16006 -4.39951
lowerneck -10.4298 -21.0795 -3.37033
upperneck 8.37511 -29.1738 5.76923
head 5.46632 -14.1734 -0.284379
rclavicle -9.22361e-014 -6.36111e-014
rhumerus 114.866 26.8583 -51.6511
rradius 67.4475
rwrist 13.8555
rhand -43.8508 27.835
rfingers 7.12502
rthumb -16.6776 -1.46856
lclavicle -9.22361e-014 -6.36111e-014
lhumerus 74.4439 26.5916 64.9794
lradius 78.541
lwrist 29.4837
lhand -30.2395 12.0103
lfingers 7.12502
lthumb -183.549 581.961
rfemur 21.2705 -10.6738 20.0798
rtibia 8.07656
rfoot 22.252 -41.0278
rtoes 33.6352
lfemur -29.7754 -20.3481 -15.5681
ltibia 31.8809
lfoot 34.4753 -44.9098
ltoes 52.3165
